<?xml version="1.0" encoding="utf-8"?>
<!-- Generator: Adobe Illustrator 21.1.0, SVG Export Plug-In . SVG Version: 6.00 Build 0)  -->
<svg version="1.1" id="Layer_1" xmlns="http://www.w3.org/2000/svg" xmlns:xlink="http://www.w3.org/1999/xlink" x="0px" y="0px"
	 viewBox="0 0 500 500" style="enable-background:new 0 0 500 500;" xml:space="preserve">
<style type="text/css">
	.st0{fill:#B61C50;}
	.st1{fill:none;stroke:#B61C50;stroke-width:5;stroke-miterlimit:10;}
	.st2{fill:none;stroke:#B61C50;stroke-width:5;stroke-miterlimit:10;stroke-dasharray:11.2921,7.5281;}
</style>
<g>
	<circle class="st0" cx="250" cy="100.9" r="40.9"/>
	<circle class="st0" cx="250" cy="399.1" r="40.9"/>
	<g>
		<g>
			<line class="st1" x1="279.5" y1="331.7" x2="283.7" y2="327.5"/>
			<path class="st2" d="M289,322.1l16.5-16.5c13.1-13.1,11.3-36.1-4-51.4c-12.5-12.5-30.3-16-43.5-9.6"/>
			<path class="st1" d="M254.8,246.4c-1.7,1.1-3.2,2.3-4.7,3.8l-0.4-0.4c-1.4,1.4-3,2.7-4.7,3.8"/>
			<path class="st2" d="M238.4,256.9c-12.7,4.3-28.5,0.4-40-11.1c-15.3-15.3-17.1-38.3-4-51.4l19.2-19.2"/>
			<line class="st1" x1="216.3" y1="172.5" x2="220.5" y2="168.3"/>
		</g>
	</g>
</g>
</svg>
