<?xml version="1.0" encoding="utf-8"?>
<!-- Generator: Adobe Illustrator 21.1.0, SVG Export Plug-In . SVG Version: 6.00 Build 0)  -->
<svg version="1.1" id="Layer_1" xmlns="http://www.w3.org/2000/svg" xmlns:xlink="http://www.w3.org/1999/xlink" x="0px" y="0px"
	 viewBox="0 0 500 500" style="enable-background:new 0 0 500 500;" xml:space="preserve">
<style type="text/css">
	.st0{fill:#FFFFFF;stroke:#B61C50;stroke-width:2;}
	.st1{fill:#6C4E79;}
	.st2{fill:#B61C50;}
</style>
<g>
	<circle class="st0" cx="250" cy="250" r="240"/>
	<g>
		<path class="st1" d="M98.5,357.3l2.6,3.6l-10.8,13.7l-2.1-3l2.7-3.3l-2.8-4l-4,1.5l-2.1-3L98.5,357.3z M97.3,360.9l-6.6,2.5l2,2.8
			L97.3,360.9z"/>
		<path class="st1" d="M106.2,367.8l2.5,3l-5.9,11.8l9.2-7.9l2.1,2.4L101.4,388l-2.5-3l5.9-11.8l-9.2,7.9l-2.1-2.4L106.2,367.8z"/>
		<path class="st1" d="M128.2,394.8l1.8-2.3l8.5,6.9l-1.8,2.3l-2.8-2.3l-6.9,8.5l2.8,2.3l-1.8,2.3l-8.5-6.9l1.8-2.3l2.8,2.3l6.9-8.5
			L128.2,394.8z"/>
		<path class="st1" d="M142.9,402.6l4.9,3.3c1.7,1.1,2.8,2.3,3.2,3.4c0.5,1.2,0.3,2.3-0.5,3.5c-0.6,0.9-1.3,1.4-2.2,1.6
			c-0.8,0.2-1.8,0-2.8-0.6c1.1,0.9,1.7,1.8,1.9,2.8c0.2,1-0.1,2.1-0.8,3.1c-0.9,1.3-2,2-3.3,2c-1.3,0-2.9-0.7-4.9-2l-4.9-3.3
			L142.9,402.6z M140.7,412.2l-2.7,4.1l2,1.3c1,0.6,1.7,0.9,2.3,0.9c0.6,0,1.1-0.4,1.6-1.2c0.5-0.7,0.7-1.4,0.5-2
			c-0.2-0.6-0.7-1.2-1.7-1.8L140.7,412.2z M144.3,406.8l-2.2,3.2l2,1.3c0.8,0.5,1.4,0.8,1.9,0.7c0.5,0,0.9-0.3,1.3-0.9
			c0.4-0.6,0.5-1.1,0.3-1.6c-0.2-0.5-0.6-1-1.4-1.5L144.3,406.8z"/>
		<path class="st1" d="M156.6,411.6l3.8,2.1l-1.6,7.5l5.4-5.4l3.8,2.1l-8,14.7l-2.7-1.5l6.4-11.8l-5.2,5.5l-2.5-1.4l1.8-7.4
			l-6.4,11.8l-2.7-1.5L156.6,411.6z"/>
		<path class="st1" d="M193.6,445.2c-0.6,0.1-1.3,0.1-1.9,0c-0.6-0.1-1.3-0.2-2-0.4c-2.4-0.8-3.9-2.1-4.7-3.9
			c-0.8-1.8-0.7-4.1,0.1-6.7c0.9-2.7,2.2-4.5,3.9-5.5c1.7-1,3.7-1.1,6.1-0.4c0.7,0.2,1.3,0.5,1.8,0.8c0.6,0.3,1.1,0.7,1.5,1.1
			l-1.1,3.5c-0.4-0.7-0.9-1.2-1.4-1.7c-0.5-0.4-1-0.7-1.6-0.9c-1.3-0.4-2.4-0.3-3.3,0.4c-0.9,0.7-1.7,2-2.3,3.7
			c-0.6,1.8-0.7,3.2-0.4,4.4c0.3,1.1,1.2,1.9,2.4,2.3c0.6,0.2,1.2,0.3,1.8,0.2c0.6,0,1.3-0.2,2.1-0.5L193.6,445.2z"/>
		<path class="st1" d="M201.4,439.3c0.6-2.8,1.6-4.8,3-6c1.4-1.2,3.1-1.5,5.2-1.1c2.1,0.5,3.5,1.5,4.2,3.2c0.7,1.7,0.8,3.9,0.2,6.7
			c-0.6,2.8-1.6,4.8-3,5.9c-1.4,1.2-3.1,1.5-5.2,1.1c-2.1-0.5-3.5-1.5-4.2-3.2C200.8,444.3,200.7,442,201.4,439.3z M208.9,435.1
			c-0.9-0.2-1.7,0.1-2.3,0.9c-0.6,0.8-1.1,2.2-1.6,4.1c-0.4,2-0.6,3.4-0.3,4.4c0.2,1,0.8,1.6,1.7,1.8c0.9,0.2,1.7-0.1,2.3-0.9
			c0.6-0.8,1.1-2.2,1.6-4.1c0.4-2,0.6-3.4,0.3-4.4C210.4,435.9,209.8,435.3,208.9,435.1z"/>
		<path class="st1" d="M220.2,434.7l3.9,0.5c3,0.4,5,1.3,6.2,2.8c1.1,1.5,1.5,3.7,1.1,6.6c-0.4,2.9-1.3,5-2.8,6.1
			c-1.5,1.1-3.7,1.5-6.7,1.1l-3.9-0.5L220.2,434.7z M223.5,438.1l-1.4,10.7l1,0.1c1.4,0.2,2.5-0.1,3.2-0.8c0.7-0.7,1.2-2.1,1.5-4
			c0.3-1.9,0.1-3.3-0.4-4.2c-0.5-0.9-1.5-1.4-2.9-1.6L223.5,438.1z"/>
		<path class="st1" d="M248.2,453.9l-11.4-0.4l0.6-16.7l11.4,0.4l-0.1,2.9l-7.8-0.3l-0.1,3.6l7.1,0.3l-0.1,2.9l-7.1-0.3l-0.2,4.4
			l7.8,0.3L248.2,453.9z"/>
		<path class="st1" d="M284.9,450.8l-11.3,1.7l-2.4-16.5l11.3-1.7l0.4,2.9l-7.7,1.1l0.5,3.6l7-1l0.4,2.9l-7,1l0.6,4.3l7.7-1.1
			L284.9,450.8z"/>
		<path class="st1" d="M304.1,446.5l-3.7,0.9l-4.7-4.5l-2.1,6.2l-3.7,0.9l3.3-9.5l-7-6.8l3.7-0.9l4.5,4.4l2-6l3.7-0.9l-3.1,9.2
			L304.1,446.5z"/>
		<path class="st1" d="M303.9,429.1l4.7-1.6c2.4-0.8,4.3-1,5.6-0.6c1.3,0.4,2.3,1.5,2.9,3.3c0.6,1.7,0.5,3.2-0.3,4.3
			c-0.8,1.1-2.4,2.1-4.8,2.9l-1.3,0.4l2,5.9l-3.4,1.2L303.9,429.1z M308.3,430.5l1.6,4.6l1.4-0.5c1.1-0.4,1.9-0.8,2.2-1.3
			c0.3-0.5,0.4-1.2,0.1-2c-0.3-0.9-0.7-1.4-1.3-1.6c-0.6-0.2-1.4-0.1-2.5,0.3L308.3,430.5z"/>
		<path class="st1" d="M337.1,434l-10.5,4.6l-6.8-15.3l10.5-4.6l1.2,2.7l-7.1,3.2l1.5,3.3l6.5-2.9l1.2,2.7l-6.5,2.9l1.8,4l7.1-3.2
			L337.1,434z"/>
		<path class="st1" d="M346.4,420.1c0.3-0.1,0.7-0.1,1-0.1c0.4,0.1,0.9,0.3,1.5,0.8l5.8,3.6l-3.5,1.9l-4-2.6
			c-0.1-0.1-0.3-0.2-0.5-0.3c-1.2-0.8-2.2-1-2.9-0.5l-1,0.6l3.2,5.8l-3.2,1.8l-8.2-14.6l4.6-2.6c2.1-1.2,3.7-1.7,5-1.5
			c1.3,0.2,2.3,1,3.2,2.5c0.6,1,0.7,2,0.5,2.8C347.9,418.7,347.3,419.4,346.4,420.1z M339.4,417.1l2.2,4l1.5-0.8
			c0.9-0.5,1.4-1,1.6-1.5c0.2-0.5,0.1-1.1-0.3-1.8c-0.4-0.7-0.9-1.1-1.4-1.2c-0.5-0.1-1.3,0.1-2.1,0.6L339.4,417.1z"/>
		<path class="st1" d="M351.5,410.2l-1.7-2.4l9-6.2l1.6,2.4l-3,2.1l6.2,9l3-2.1l1.7,2.4l-9,6.2l-1.6-2.4l3-2.1l-6.2-9L351.5,410.2z"
			/>
		<path class="st1" d="M362.8,398.7l3.3-2.8l6.4,4.2l-3-7l3.3-2.8l10.7,12.8l-2.4,2l-8.6-10.3l3.2,6.9l-2.2,1.9l-6.2-4.4l8.6,10.3
			l-2.4,2L362.8,398.7z"/>
		<path class="st1" d="M396.3,390.7l-8.1,8.1L376.4,387l8.1-8.1l2.1,2.1l-5.5,5.5l2.6,2.5l5-5l2.1,2.1l-5,5l3.1,3.1l5.5-5.5
			L396.3,390.7z"/>
		<path class="st1" d="M387.7,375.3l2.5-3l12.6,3.8l-9.4-7.7l2-2.5l12.9,10.7l-2.5,3l-12.6-3.8l9.4,7.7l-2,2.5L387.7,375.3z"/>
		<path class="st1" d="M416.6,365.1l-2.1,3l-11.4-7.8l-2.6,3.8l-2.4-1.6l7.3-10.7l2.4,1.6l-2.6,3.8L416.6,365.1z"/>
	</g>
	<g>
		<path class="st1" d="M112.9,91.9l6.3-4.8l8,10.5l1.9-18l7.1-5.4l-2.1,18.1l22.7,8.2l-7,5.3l-16.7-6.2l-0.6,5.1l6.9,9l-6.3,4.8
			L112.9,91.9z"/>
		<path class="st1" d="M152.9,88.8L143.3,70l7.1-3.6l10.3,20.3c0.8,1.5,1.8,2.4,3.1,2.8c1.3,0.4,2.8,0.2,4.4-0.7
			c1.6-0.8,2.7-1.9,3.1-3.2c0.5-1.3,0.3-2.7-0.4-4.2l-10.3-20.3l7.1-3.6l9.5,18.8c2.1,4,2.6,7.5,1.6,10.3c-1,2.8-3.6,5.3-7.9,7.5
			c-4.3,2.2-7.8,2.8-10.7,2C157.4,95.3,154.9,92.8,152.9,88.8z"/>
		<path class="st1" d="M177.9,53.5l12.4-3.7c4.3-1.3,7.7-1.6,10.2-0.8c2.6,0.7,4.2,2.4,5,5.1c0.6,2.1,0.5,3.9-0.5,5.4
			c-0.9,1.5-2.6,2.8-5,3.7c3-0.6,5.5-0.5,7.4,0.5c1.9,1,3.2,2.7,4,5.2c0.9,3.1,0.5,5.7-1.3,7.7c-1.8,2.1-5.2,3.8-10.3,5.3l-12.4,3.7
			L177.9,53.5z M186.7,56.4l2.2,7.4l5-1.5c1.9-0.6,3.2-1.3,3.8-2.1c0.6-0.8,0.8-1.9,0.4-3.2c-0.4-1.3-1.1-2.1-2.1-2.5
			c-1-0.3-2.5-0.2-4.3,0.3L186.7,56.4z M190.5,68.9l2.8,9.5l5-1.5c2.4-0.7,4-1.6,4.8-2.5c0.8-1,0.9-2.3,0.4-4
			c-0.5-1.7-1.4-2.8-2.6-3.3c-1.2-0.5-3-0.3-5.4,0.4L190.5,68.9z"/>
		<path class="st1" d="M244,74.2l-24.8,2.7l-3.6-33.2l24.8-2.7l0.6,5.8l-17,1.8l0.8,7.2l15.4-1.7l0.6,5.8l-15.4,1.7l0.9,8.7l17-1.8
			L244,74.2z"/>
		<path class="st1" d="M275.3,75c-1.3,0.4-2.6,0.7-4,0.9c-1.4,0.2-2.9,0.2-4.4,0.1c-5.4-0.4-9.4-2.2-12-5.4
			c-2.6-3.2-3.7-7.6-3.3-13.2c0.4-5.6,2.1-9.8,5.2-12.5c3.1-2.8,7.3-3.9,12.7-3.5c1.5,0.1,3,0.4,4.3,0.7c1.4,0.4,2.6,0.9,3.8,1.5
			l-0.5,7.3c-1.3-1.1-2.5-2-3.8-2.6c-1.2-0.6-2.5-0.9-3.9-1c-2.9-0.2-5.1,0.6-6.8,2.4c-1.6,1.8-2.6,4.6-2.8,8.4
			c-0.3,3.8,0.3,6.6,1.6,8.7c1.3,2,3.4,3.1,6.3,3.4c1.4,0.1,2.7,0,4-0.4c1.3-0.4,2.7-1.1,4.1-2L275.3,75z"/>
		<path class="st1" d="M284.6,60.5c1.4-5.5,3.7-9.4,6.7-11.7c3-2.2,6.8-2.8,11.3-1.6c4.5,1.2,7.5,3.5,9.1,6.9
			c1.6,3.4,1.6,7.9,0.2,13.4c-1.4,5.5-3.7,9.4-6.7,11.6c-3,2.2-6.8,2.8-11.3,1.6c-4.5-1.2-7.5-3.5-9.1-6.9
			C283.2,70.5,283.1,66,284.6,60.5z M301.1,53c-2-0.5-3.6,0-5,1.5c-1.4,1.5-2.5,4.2-3.6,8.1c-1,3.9-1.3,6.8-0.8,8.8s1.7,3.2,3.6,3.7
			c2,0.5,3.6,0,5-1.5c1.4-1.5,2.5-4.2,3.5-8.1c1-3.9,1.3-6.8,0.8-8.8C304.3,54.8,303,53.5,301.1,53z"/>
		<path class="st1" d="M324.7,60.9l2.4-5.3l21.7,10l-2.4,5.3l-7.2-3.4l-9.2,19.8l7.2,3.4l-2.4,5.3l-21.7-10l2.4-5.3l7.2,3.4
			l9.2-19.8L324.7,60.9z"/>
		<path class="st1" d="M359.7,71.8l7,4.9l-4.9,26.3l14-19.8l5.7,4l-19.3,27.3l-6.9-4.9l4.9-26.3l-14,19.8l-5.7-4L359.7,71.8z"/>
	</g>
	<g>
		<path class="st2" d="M218.8,248c1-0.3,2-0.9,2.7-1.8c1.8-2.2,1.4-5.4-0.7-7.2l0-0.1l-23.3-20.8c-6.9,11.2-10.2,24.7-8.7,38.6
			l29.8-8.6L218.8,248z"/>
		<path class="st2" d="M232.4,224.5c0.9,0.6,1.9,1,3.1,1c2.8,0,5.1-2.2,5.2-5l0.1-0.1l1.8-31.1c-2.1,0.3-4.2,0.6-6.3,1.1
			c-11.5,2.6-21.6,8.3-29.4,16L232.4,224.5L232.4,224.5z"/>
		<polygon class="st2" points="241.4,257.1 250,261.3 258.5,257.2 260.7,247.9 254.8,240.5 245.2,240.5 239.3,247.9 		"/>
		<path class="st2" d="M229,270c-0.5-2.4-2.7-4-5-4.1c-0.3,0-0.7,0-1,0.1l-0.1-0.1l-30.6,5.2c4.7,13.1,13.5,23.7,24.6,30.8
			l11.8-28.6l-0.1-0.1C229.1,272.3,229.2,271.2,229,270z"/>
		<path class="st2" d="M259.2,220.4c0,1.1,0.4,2.1,1.1,3c1.8,2.2,4.9,2.6,7.2,1l0.1,0l25.3-17.9c-9.5-9.4-22-15.5-35.5-17.1
			L259.2,220.4L259.2,220.4z"/>
		<path class="st2" d="M302.2,218.1L279,238.8l0,0.1c-0.8,0.7-1.4,1.6-1.7,2.8c-0.6,2.7,1,5.5,3.7,6.2l0,0.1l30,8.6
			c0.6-6.5,0.2-13.2-1.3-19.9C308.3,230,305.6,223.7,302.2,218.1z"/>
		<path class="st2" d="M250,96.5c-84.8,0-153.5,68.7-153.5,153.5S165.2,403.5,250,403.5c84.8,0,153.5-68.7,153.5-153.5
			S334.8,96.5,250,96.5z M354.2,274c-0.7,3.2-4.1,5.1-7.6,4.3c0,0-0.1,0-0.1,0c0,0-0.1,0-0.1,0c-0.5-0.1-1.1-0.2-1.5-0.3
			c-2-0.5-3.5-1.4-5.3-2c-3.9-1.4-7.2-2.6-10.3-3c-1.6-0.1-2.4,0.6-3.3,1.2c-0.4-0.1-1.8-0.3-2.5-0.4c-5.7,17.8-17.8,33.3-34.1,42.9
			c0.3,0.7,0.8,2.1,1,2.4c-0.4,1-0.9,2-0.5,3.5c1.1,3,3,5.9,5.3,9.4c1.1,1.6,2.2,2.9,3.2,4.7c0.2,0.4,0.5,1.1,0.8,1.6
			c1.5,3.3,0.4,7-2.5,8.4c-2.9,1.4-6.6-0.1-8.2-3.4c-0.2-0.5-0.5-1.1-0.7-1.5c-0.8-1.9-1.1-3.6-1.7-5.4c-1.3-3.9-2.4-7.2-4.1-10
			c-0.9-1.3-2-1.5-3-1.8c-0.2-0.3-0.9-1.6-1.3-2.3c-3.3,1.2-6.7,2.3-10.2,3.1c-15.4,3.5-30.7,2.1-44.5-3.2l-1.3,2.4
			c-1,0.3-2,0.5-2.6,1.2c-2.2,2.6-3,6.7-4.6,10.6c-0.6,1.9-0.9,3.5-1.7,5.4c-0.2,0.4-0.5,1-0.7,1.5c0,0,0,0,0,0c0,0,0,0,0,0
			c-1.6,3.3-5.2,4.8-8.2,3.3c-2.9-1.4-4-5.2-2.5-8.4c0.2-0.5,0.5-1.2,0.8-1.6c1-1.9,2.1-3.1,3.2-4.7c2.2-3.5,4.2-6.7,5.4-9.6
			c0.3-1-0.1-2.3-0.5-3.3l1.1-2.6c-15.8-9.3-28.2-24.2-34.2-42.6l-2.6,0.4c-0.7-0.4-2.1-1.3-3.4-1.2c-3.2,0.5-6.4,1.6-10.3,3
			c-1.8,0.7-3.3,1.5-5.3,2c-0.4,0.1-1,0.2-1.5,0.3c0,0-0.1,0-0.1,0c0,0-0.1,0-0.1,0c-3.5,0.8-6.9-1.2-7.6-4.3
			c-0.7-3.2,1.5-6.4,5-7.2c0,0,0.1,0,0.1,0c0,0,0,0,0.1,0c0.5-0.1,1.1-0.3,1.6-0.4c2.1-0.4,3.7-0.3,5.7-0.5
			c4.1-0.4,7.6-0.8,10.6-1.7c1-0.4,1.9-1.7,2.5-2.6l2.5-0.7c-2.8-19.2,1.9-38.1,12.1-53.4l-1.9-1.7c-0.1-0.7-0.3-2.4-1.2-3.4
			c-2.3-2.2-5.3-4-8.8-6.2c-1.7-1-3.2-1.6-4.9-2.9c-0.4-0.3-0.8-0.7-1.2-1c0,0-0.1,0-0.1-0.1c-2.8-2.3-3.5-6.2-1.5-8.7
			c1.1-1.4,2.9-2.2,4.7-2.1c1.4,0,2.9,0.6,4.1,1.6c0.4,0.3,1,0.7,1.3,1.1c1.6,1.4,2.6,2.7,3.9,4.1c2.9,3,5.3,5.4,8,7.2
			c1.4,0.8,2.5,0.5,3.5,0.3c0.3,0.3,1.5,1.1,2.1,1.5c10.1-10.7,23.3-18.6,38.7-22.1c3.6-0.8,7.2-1.4,10.7-1.6l0.1-2.5
			c0.8-0.8,1.7-1.9,1.9-3.1c0.3-3.2-0.2-6.6-0.7-10.7c-0.3-1.9-0.7-3.5-0.8-5.6c0-0.4,0-1,0-1.5c0-0.1,0-0.1,0-0.2
			c0-3.6,2.7-6.6,5.9-6.6c3.3,0,5.9,2.9,5.9,6.6c0,0.5,0,1.2,0,1.7c-0.1,2.1-0.5,3.7-0.8,5.6c-0.5,4.1-0.9,7.6-0.7,10.7
			c0.2,1.6,1.2,2.2,1.9,3c0,0.4,0.1,1.9,0.1,2.6c18.8,1.7,36.3,10.3,49.2,23.8l2.3-1.6c0.8,0,2.4,0.3,3.6-0.4c2.6-1.8,5.1-4.3,8-7.2
			c1.3-1.4,2.3-2.8,3.9-4.1c0.4-0.3,0.9-0.7,1.3-1.1c2.8-2.3,6.8-2,8.8,0.5c2,2.6,1.4,6.5-1.5,8.7c-0.4,0.3-0.9,0.8-1.3,1.1
			c-1.7,1.2-3.2,1.9-4.9,2.9c-3.5,2.2-6.5,4-8.8,6.2c-1.1,1.2-1,2.3-1.1,3.4c-0.3,0.3-1.5,1.3-2.1,1.9c5.1,7.6,8.9,16.2,11.1,25.6
			c2.1,9.3,2.5,18.7,1.2,27.6l2.4,0.7c0.4,0.6,1.3,2.1,2.6,2.6c3,1,6.5,1.3,10.6,1.7c1.9,0.2,3.6,0.1,5.7,0.5
			c0.5,0.1,1.2,0.3,1.7,0.4C352.7,267.7,354.9,270.9,354.2,274z"/>
		<path class="st2" d="M277,265.9c-0.4-0.1-0.8-0.1-1.2-0.1c-0.7,0-1.4,0.2-2,0.5c-2.5,1.2-3.6,4.2-2.5,6.8l0,0.1l12,28.9
			c11.5-7.4,20.2-18.3,24.7-31L277,265.9L277,265.9z"/>
		<path class="st2" d="M254.6,281.3c-0.5-0.9-1.3-1.7-2.3-2.2c-0.8-0.4-1.6-0.5-2.4-0.5c-1.8,0.1-3.5,1.1-4.4,2.8h0l-15,27.2
			c10.4,3.5,21.9,4.3,33.4,1.7c2.1-0.5,4.1-1,6-1.7l-15.1-27.2H254.6z"/>
	</g>
	<circle class="st1" cx="444.1" cy="242.6" r="9.7"/>
	<circle class="st1" cx="59.1" cy="242.6" r="9.7"/>
</g>
</svg>
