<?xml version="1.0" encoding="utf-8"?>
<!-- Generator: Adobe Illustrator 21.1.0, SVG Export Plug-In . SVG Version: 6.00 Build 0)  -->
<svg version="1.1" id="Layer_1" xmlns="http://www.w3.org/2000/svg" xmlns:xlink="http://www.w3.org/1999/xlink" x="0px" y="0px"
	 viewBox="0 0 500 500" style="enable-background:new 0 0 500 500;" xml:space="preserve">
<style type="text/css">
	.st0{clip-path:url(#SVGID_2_);}
	.st1{clip-path:url(#SVGID_4_);fill:#B61C50;}
</style>
<g>
	<defs>
		<path id="SVGID_1_" d="M264.5,132.2h139.4c9.3,0,16.8,7.5,16.8,16.8c0,9.3-7.5,16.8-16.8,16.8H293.7v4.5l0,83.3l92.1,156
			c5.7,9.6,2.4,22.1-7.2,27.7c-9.6,5.7-22.1,2.5-27.8-7.1l-77.6-131.8c-3.5-6.2-12.4-14.1-23.8-14.1c-10.8,0-20.9,8.2-23.8,14.1
			l-77.8,131.5c-5.7,9.6-18.2,12.8-27.8,7.2c-9.6-5.7-12.8-18.1-7.2-27.7l92.1-156v-83.2v-4.5H96.1c-9.3,0-16.8-7.5-16.8-16.8
			c0-9.3,7.5-16.8,16.8-16.8h138.1h0.5c-13.2-5.9-22.4-19-22.4-34.4c0-20.8,16.9-37.6,37.7-37.6c20.8,0,37.7,16.8,37.7,37.6
			c0,15.4-9.2,28.5-22.4,34.4L264.5,132.2z"/>
	</defs>
	<clipPath id="SVGID_2_">
		<use xlink:href="#SVGID_1_"  style="overflow:visible;"/>
	</clipPath>
	<g class="st0">
		<defs>
			<rect id="SVGID_3_" x="-2123.4" y="-828.8" width="9274.6" height="6595.3"/>
		</defs>
		<clipPath id="SVGID_4_">
			<use xlink:href="#SVGID_3_"  style="overflow:visible;"/>
		</clipPath>
		<rect x="47.1" y="27.8" class="st1" width="405.8" height="444.4"/>
	</g>
</g>
</svg>
